# xmcd
#
# Track frame offsets:
# 150
# 25708
# 44325
# 114474
# 133065
# 206519
# 227667
# 251809
# 273051
# 293678
# 319826
#
# Disc length: 4773 seconds
#
# Revision: 0
# Processed by: cddbd v1.5.1PL0 Copyright (c) Steve Scherf et al.
# Submitted via: Audion 3.0.2 (http://www.panic.com/audion/)
#
DISCID=9812a30b
DTITLE=Archive - Archive-Best Of
DYEAR=1900
DGENRE=
TTITLE0=Goodbye
TTITLE1=You Make Me Feel
TTITLE2=Finding It So Hard
TTITLE3=Old artist
TTITLE4=Again
TTITLE5=Nothing Else
TTITLE6=Londinium
TTITLE7=archive - cloud in the
TTITLE8=Darkroom
TTITLE9=Numb
TTITLE10=Fool
EXTD=
EXTT0=
EXTT1=
EXTT2=
EXTT3=
EXTT4=
EXTT5=
EXTT6=
EXTT7=
EXTT8=
EXTT9=
EXTT10=
PLAYORDER=
